#!OML:ASF X:\für Bonn\!DataBase\2005_08_11_Bastian_Final\c3d\Bastian.ASF
:FULLY-SPECIFIED
:DEGREES
136
root -1.63839 18.0828 0.369418 166.377 -58.9579 -175.697
lowerback 4.91766 -3.03157 0.779716
upperback -1.60827 -3.9809 0.448798
thorax -4.43743 -1.9921 0.373785
lowerneck 5.75296 -18.4315 -7.55708
upperneck -5.10364 -25.1922 14.3446
head 0.353701 -12.9387 5.1184
rclavicle -3.40419e-015 -3.47873e-015
rhumerus 36.3551 -30.388 -28.4565
rradius 74.9452
rwrist -235.626
rhand -10.9737 -76.6375
rfingers 7.12502
rthumb 15.0458 -253.929
lclavicle -3.40419e-015 -3.47873e-015
lhumerus 449.61 -6.19569 -304.33
lradius 71.5714
lwrist -156.01
lhand -9.04774 60.6039
lfingers 7.12502
lthumb 16.9005 89.8886
rfemur 2.55235 0.00665281 19.3599
rtibia 31.4122
rfoot -10.8164 -19.2671
rtoes -3.68031
lfemur 8.31885 -0.545641 -3.93447
ltibia 35.5327
lfoot 7.00595 -5.01636
ltoes -42.6007
137
root -1.62064 18.1272 0.322002 166.589 -58.8721 -175.822
lowerback 4.91199 -3.02013 0.845724
upperback -1.65935 -3.95808 0.550791
thorax -4.48456 -1.98163 0.44171
lowerneck 5.55571 -18.4011 -7.57108
upperneck -5.17044 -25.1331 14.3689
head 0.363019 -12.9031 5.11283
rclavicle 1.49089e-015 7.25564e-015
rhumerus 38.5038 -30.4028 -28.8407
rradius 71.1479
rwrist -235.881
rhand -10.6528 -75.665
rfingers 7.12502
rthumb 15.3549 -254.925
lclavicle 1.49089e-015 7.25564e-015
lhumerus 450.145 -6.09848 -304.03
lradius 69.5068
lwrist -156.366
lhand -9.57918 60.161
lfingers 7.12502
lthumb 16.3889 89.4886
rfemur 2.69862 2.02848 20.0751
rtibia 31.1495
rfoot -10.6946 -20.9818
rtoes -3.1
lfemur 8.05263 0.543971 -4.13149
ltibia 35.7061
lfoot 7.40612 -5.37043
ltoes -42.8913
138
root -1.60175 18.1695 0.277918 166.75 -58.7773 -175.898
lowerback 4.93553 -3.01157 0.928365
upperback -1.70924 -3.93688 0.676767
thorax -4.54649 -1.97218 0.526976
lowerneck 5.32087 -18.3734 -7.58386
upperneck -5.21002 -25.0747 14.3429
head 0.379422 -12.8641 5.08882
rclavicle 9.75039e-014 6.61953e-014
rhumerus 40.8156 -30.3713 -29.2802
rradius 67.0809
rwrist -235.992
rhand -10.0501 -74.2515
rfingers 7.12502
rthumb 15.9354 -256.384
lclavicle 9.75039e-014 6.61953e-014
lhumerus 450.696 -6.04738 -303.716
lradius 67.2164
lwrist -156.602
lhand -9.8884 59.1168
lfingers 7.12502
lthumb 16.0911 88.4688
rfemur 2.81219 4.22344 20.86
rtibia 31.0208
rfoot -10.7896 -22.8297
rtoes -2.43786
lfemur 7.81765 1.60416 -4.31511
ltibia 35.8415
lfoot 7.82114 -5.26404
ltoes -42.8037
139
root -1.58793 18.2099 0.232871 166.978 -58.6929 -176.065
lowerback 4.8848 -3.01402 0.95608
upperback -1.73143 -3.93565 0.789659
thorax -4.53477 -1.97148 0.625535
lowerneck 5.12219 -18.3257 -7.65455
upperneck -5.28659 -24.9941 14.3925
head 0.394049 -12.8175 5.09726
rclavicle 3.44394e-014 -2.08724e-014
rhumerus 43.2683 -30.3109 -29.7583
rradius 62.7854
rwrist -236.068
rhand -9.25503 -72.321
rfingers 7.12502
rthumb 16.7009 -258.377
lclavicle 3.44394e-014 -2.08724e-014
lhumerus 451.3 -6.00633 -303.381
lradius 64.6558
lwrist -156.651
lhand -10.0236 57.4326
lfingers 7.12502
lthumb 15.9609 86.795
rfemur 2.93656 6.41976 21.586
rtibia 30.992
rfoot -11.0467 -24.6463
rtoes -1.70753
lfemur 7.63881 2.6015 -4.58089
ltibia 35.9567
lfoot 8.16882 -4.67751
ltoes -42.5368
140
root -1.57513 18.2444 0.187689 167.12 -58.6622 -176.134
lowerback 4.79899 -3.05206 0.984138
upperback -1.73649 -3.98186 0.93664
thorax -4.48291 -1.9942 0.760323
lowerneck 4.83239 -18.2853 -7.64743
upperneck -5.30731 -24.9126 14.3132
head 0.412655 -12.7632 5.05284
rclavicle 2.39039e-014 3.97569e-015
rhumerus 45.8518 -30.2319 -30.2616
rradius 58.3915
rwrist -236.115
rhand -8.25484 -69.7784
rfingers 7.12502
rthumb 17.6636 -261.004
lclavicle 2.39039e-014 3.97569e-015
lhumerus 451.968 -5.97534 -302.98
lradius 61.7764
lwrist -156.44
lhand -9.9372 55.1835
lfingers 7.12502
lthumb 16.0441 84.5392
rfemur 3.03139 8.31913 22.2713
rtibia 31.0409
rfoot -11.3859 -26.2203
rtoes -0.976625
lfemur 7.45353 3.59805 -4.76001
ltibia 36.073
lfoot 8.4824 -3.82534
ltoes -42.1524
141
root -1.56079 18.2731 0.141459 167.289 -58.683 -176.247
lowerback 4.71529 -3.12025 0.89876
upperback -1.73918 -4.07514 1.11038
thorax -4.41941 -2.03697 0.989345
lowerneck 4.54046 -18.2207 -7.70584
upperneck -5.32638 -24.8033 14.2823
head 0.443561 -12.6954 5.02881
rclavicle 1.67476e-014 2.98177e-014
rhumerus 48.5354 -30.0833 -30.6747
rradius 53.9189
rwrist -236.197
rhand -7.07823 -66.5209
rfingers 7.12502
rthumb 18.7956 -264.367
lclavicle 1.67476e-014 2.98177e-014
lhumerus 452.66 -5.98146 -302.399
lradius 58.5934
lwrist -156.036
lhand -9.74605 52.6116
lfingers 7.12502
lthumb 16.2282 81.9524
rfemur 3.077 9.6767 22.7569
rtibia 31.1389
rfoot -11.6293 -27.3023
rtoes -0.428552
lfemur 7.26639 4.54187 -4.95628
ltibia 36.1893
lfoot 8.69479 -2.82913
ltoes -41.5964
142
root -1.54287 18.2975 0.0969801 167.421 -58.7063 -176.32
lowerback 4.66362 -3.19725 0.813236
upperback -1.74915 -4.17978 1.29107
thorax -4.38017 -2.08544 1.22856
lowerneck 4.21508 -18.1633 -7.69976
upperneck -5.30177 -24.7003 14.1787
head 0.475943 -12.628 4.97378
rclavicle 4.96962e-016 3.97569e-016
rhumerus 51.2749 -29.8602 -30.8336
rradius 49.1561
rwrist -236.517
rhand -5.74017 -62.6631
rfingers 7.12502
rthumb 20.0821 -268.355
lclavicle 4.96962e-016 3.97569e-016
lhumerus 453.37 -6.01585 -301.715
lradius 55.2228
lwrist -155.289
lhand -9.54753 49.7134
lfingers 7.12502
lthumb 16.4193 79.0385
rfemur 3.04852 10.4843 23.0795
rtibia 31.2594
rfoot -11.6316 -27.8974
rtoes -0.197197
lfemur 7.08833 5.4526 -5.10652
ltibia 36.3054
lfoot 8.80714 -1.81897
ltoes -40.8149
143
root -1.52438 18.3195 0.0534832 167.573 -58.7434 -176.429
lowerback 4.61422 -3.28822 0.67528
upperback -1.74227 -4.30661 1.47406
thorax -4.31933 -2.14375 1.50011
lowerneck 3.79504 -18.1001 -7.62438
upperneck -5.23351 -24.5833 14.0203
head 0.519225 -12.5499 4.88684
rclavicle -3.06128e-014 1.94809e-014
rhumerus 53.9557 -29.5548 -30.6239
rradius 44.2198
rwrist -237.134
rhand -4.23242 -58.2641
rfingers 7.12502
rthumb 21.5308 -447.087
lclavicle -3.06128e-014 1.94809e-014
lhumerus 454.09 -6.07867 -300.888
lradius 51.7404
lwrist -154.298
lhand -9.45421 46.5757
lfingers 7.12502
lthumb 16.5092 75.8934
rfemur 2.98628 10.9614 23.2613
rtibia 31.386
rfoot -11.51 -28.164
rtoes 0.0262326
lfemur 6.93743 6.30627 -5.26803
ltibia 36.3972
lfoot 8.85348 -0.891511
ltoes -39.9648
